<?xml version="1.0" encoding="utf-8"?>
<!-- Generator: Adobe Illustrator 19.2.1, SVG Export Plug-In . SVG Version: 6.00 Build 0)  -->
<svg version="1.1" id="Layer_1" xmlns="http://www.w3.org/2000/svg" xmlns:xlink="http://www.w3.org/1999/xlink" x="0px" y="0px"
	 viewBox="0 0 2305.4 1000" style="enable-background:new 0 0 2305.4 1000;" xml:space="preserve">
<style type="text/css">
	.st0{display:none;}
	.st1{display:inline;fill:#D7FFD7;}
	.st2{font-family:'Industry-Book';}
	.st3{font-size:200px;}
	.st4{letter-spacing:4;}
	.st5{display:inline;fill:#FFFFFF;}
	.st6{font-family:'Industry-Demi';}
	.st7{font-family:'Industry-Black';}
	.st8{font-size:150px;}
	.st9{letter-spacing:3;}
	.st10{clip-path:url(#SVGID_2_);fill:#FE7F53;}
	.st11{opacity:0.3;clip-path:url(#SVGID_2_);}
	.st12{clip-path:url(#SVGID_2_);}
	.st13{fill:#FFE3DC;}
	.st14{fill:#FFFFFF;}
</style>
<text transform="matrix(1 0 0 1 604.8351 556.1969)" class="st0"><tspan x="0" y="0" class="st1 st2 st3">cryp</tspan><tspan x="398.4" y="0" class="st1 st2 st3 st4">t</tspan><tspan x="472.8" y="0" class="st5 st6 st3 st4">o</tspan><tspan x="588.4" y="0" class="st5 st7 st8 st9">1</tspan><tspan x="655.7" y="0" class="st5 st6 st3 st4">o</tspan><tspan x="771.3" y="0" class="st1 st2 st3">gue</tspan></text>
<g>
	<defs>
		<path id="SVGID_1_" d="M1784.6,683.7h-421.6l-141.3,123l-132.4-123H531.7c-31.8,0-57.7-25.8-57.7-57.7V374.9
			c0-31.8,25.8-57.7,57.7-57.7h1252.9c31.8,0,57.7,25.8,57.7,57.7v251.1C1842.3,657.9,1816.5,683.7,1784.6,683.7z"/>
	</defs>
	<clipPath id="SVGID_2_">
		<use xlink:href="#SVGID_1_"  style="overflow:visible;"/>
	</clipPath>
	<path class="st10" d="M1784.6,683.7h-421.6l-141.3,123l-132.4-123H531.7c-31.8,0-57.7-25.8-57.7-57.7V374.9
		c0-31.8,25.8-57.7,57.7-57.7h1252.9c31.8,0,57.7,25.8,57.7,57.7v251.1C1842.3,657.9,1816.5,683.7,1784.6,683.7z"/>
	<polygon class="st11" points="623.9,547.4 628.6,457.8 695,456.1 731,492 740.8,448.2 754.1,461.5 782.8,448.2 805.3,470.6 
		806.4,448.2 856.9,498.7 885.2,448.2 913.3,476.3 918.4,448.2 932.7,462.5 962.5,453.7 982.7,455.3 1030.1,502.6 1037.2,416.2 
		1090.3,469.3 1169.5,455.2 1197.2,482.5 1242.5,448.2 1287.3,493 1286.3,461.9 1353.2,456 1396.5,499.3 1398.6,457.3 1441.1,457.6 
		1461.3,467 1473,448.2 1506.5,481.7 1516.8,448.2 1579.1,510.5 1585.6,448.2 1621.7,484.3 1628.4,456.2 1689.2,453.7 1909.7,669.8 
		1242.5,994 987.6,911.1 	"/>
	<g class="st12">
		<path class="st13" d="M674,448.2c17.6,0,27.2,9.6,27.2,27.2v6.4h-13.6v-7.2c0-9.2-4.8-14-14-14H646c-9,0-14,4.8-14,14v55.2
			c0,9,5,14,14,14h27.6c9,0,14-5,14-14v-7.2h13.6v6.4c0,17.6-9.6,27.2-27.2,27.2h-28.4c-17.6,0-27.2-9.6-27.2-27.2v-53.6
			c0-17.6,9.6-27.2,27.2-27.2H674z"/>
		<path class="st13" d="M773.2,461.4c-10.8,0-21.8,5.8-32.4,12.6v82.2h-13.6v-108h13.6v15.6c9.6-8,20-15.6,32.4-15.6h9.6v13.2H773.2
			z"/>
		<path class="st13" d="M831,592.2h-12.8l13.4-36l-39.2-108h14l32,91l33.2-91h13.6L831,592.2z"/>
		<path class="st13" d="M962.4,448.2c17.6,0,27.2,9.6,27.2,27.2V529c0,17.6-9.6,27.2-27.2,27.2h-11.6c-12.2,0-21.8-6.6-32.4-15.6
			v51.6h-13.6v-144h13.6v15.6c10.6-9,20.2-15.6,32.4-15.6H962.4z M976,474.6c0-9-4.8-14-14-14h-11.2c-11,0-20.6,4.2-32.4,12.6v58
			c11.8,8.4,21.4,12.6,32.4,12.6H962c9.2,0,14-5,14-14V474.6z"/>
		<path class="st13" d="M1037.4,530.2c0,9,5,14,14,14h13.8v12H1051c-17.6,0-27.2-9.6-27.2-27.2v-69.2h-16.6v-11.6h16.8v-32h13.2v32
			h28v11.6h-27.8V530.2z"/>
		<path class="st14" d="M1149.6,448.2c17.2,0,26.4,9.2,26.4,26.4v55.2c0,17.2-9.2,26.4-26.4,26.4H1114c-17,0-26.4-9.4-26.4-26.4
			v-55.2c0-17.2,9.4-26.4,26.4-26.4H1149.6z M1153.2,476c0-5-2.8-7.6-7.6-7.6h-27.4c-5,0-7.6,2.6-7.6,7.6v52.4c0,5,2.6,7.6,7.6,7.6
			h27.4c4.8,0,7.6-2.6,7.6-7.6V476z"/>
		<path class="st14" d="M1217.3,472.9l-20.1,9.6v-22l25.6-12.3h19.6v108h-25.2V472.9z"/>
		<path class="st14" d="M1332.6,448.2c17.2,0,26.4,9.2,26.4,26.4v55.2c0,17.2-9.2,26.4-26.4,26.4H1297c-17,0-26.4-9.4-26.4-26.4
			v-55.2c0-17.2,9.4-26.4,26.4-26.4H1332.6z M1336.2,476c0-5-2.8-7.6-7.6-7.6h-27.4c-5,0-7.6,2.6-7.6,7.6v52.4c0,5,2.6,7.6,7.6,7.6
			h27.4c4.8,0,7.6-2.6,7.6-7.6V476z"/>
		<path class="st13" d="M1473,565c0,17.6-9.6,27.2-27.2,27.2H1399v-12h46.4c9.2,0,14-4.8,14-14v-25.6c-10.6,9-20.2,15.6-32.4,15.6
			h-11.6c-17.6,0-27.2-9.6-27.2-27.2v-53.6c0-17.6,9.6-27.2,27.2-27.2h11.6c12.2,0,21.8,6.6,32.4,15.6v-15.6h13.6V565z M1427,543.8
			c11,0,20.6-4.2,32.4-12.6v-58c-11.8-8.4-21.4-12.6-32.4-12.6h-11.2c-9.2,0-14,5-14,14v55.2c0,9,4.8,13.8,14,14H1427z"/>
		<path class="st13" d="M1585.6,556.2H1572v-15.6c-10.6,9-20.2,15.6-32.4,15.6h-9.2c-17.6,0-27.2-9.6-27.2-27.2v-80.8h13.6v81.6
			c0,9,4.8,14,14,14h8.8c11,0,20.6-4.2,32.4-12.6v-83h13.6V556.2z"/>
		<path class="st13" d="M1628.4,530.2c0,9.2,5,14,14,14h28c9,0,14-5,14-14v-7.8h13.6v6.6c0,17.6-9.6,27.2-27.2,27.2H1642
			c-17.6,0-27.2-9.6-27.2-27.2v-53.6c0-17.6,9.6-27.2,27.2-27.2h28.8c17.6,0,27.2,9.6,27.2,27.2V505h-69.6V530.2z M1642.4,460.2
			c-9,0-14,4.8-14,14v19.6h56v-19.6c0-9.2-4.8-14-14-14H1642.4z"/>
	</g>
</g>
</svg>
